<?xml version="1.0" encoding="utf-8"?>
<!-- Generator: Adobe Illustrator 22.0.1, SVG Export Plug-In . SVG Version: 6.00 Build 0)  -->
<svg version="1.1" id="Layer_1" xmlns="http://www.w3.org/2000/svg" xmlns:xlink="http://www.w3.org/1999/xlink" x="0px" y="0px"
	 viewBox="0 0 2048 2048" style="enable-background:new 0 0 2048 2048;" xml:space="preserve">
<style type="text/css">
	.st0{fill:#FFE876;fill-opacity:0.49;}
	.st1{fill:#011534;}
	.st2{fill:none;stroke:#000000;stroke-width:3.63;stroke-linecap:square;}
	.st3{fill:#09476B;}
	.st4{fill:none;stroke:#000000;stroke-width:5.6;stroke-linecap:square;}
	.st5{fill:#FFD91F;}
</style>
<g id="document" transform="matrix(1,0,0,1,1024.0,1024.0)">
	<path d="M0-143.2c-30.7,0-58.3,11.3-79.3,30.9C-58.5-93.5-30.5-81.5,0-81.5S58.3-93,79.3-112.4C58.5-131.2,30.3-143.2,0-143.2z"/>
	<path class="st0" d="M-356.2-2814.8L-200.5,61l700-2793.7L-356.2-2814.8z"/>
	<g>
		<ellipse class="st1" cx="0" cy="0" rx="247.5" ry="61"/>
		<ellipse class="st2" cx="0" cy="0" rx="247.5" ry="61"/>
	</g>
	<g>
		<polygon class="st3" points="-35.2,131.9 -96.3,96.6 -131.9,35.2 -131.9,-35.2 -96.3,-96.3 -35.2,-131.9 35.2,-131.9 96.6,-96.3 
			131.9,-35.2 131.9,35.2 96.6,96.6 35.2,131.9 		"/>
		<polygon class="st4" points="-35.2,131.9 -96.3,96.6 -131.9,35.2 -131.9,-35.2 -96.3,-96.3 -35.2,-131.9 35.2,-131.9 96.6,-96.3 
			131.9,-35.2 131.9,35.2 96.6,96.6 35.2,131.9 		"/>
	</g>
	<path class="st5" d="M0-131.9c-9.8,0-17.8-2-17.8-4.4s8-4.4,17.8-4.4s17.8,2,17.8,4.4C17.8-133.8,9.8-131.9,0-131.9z"/>
</g>
</svg>
