<?xml version="1.0" encoding="utf-8"?>
<!-- Generator: Adobe Illustrator 22.0.1, SVG Export Plug-In . SVG Version: 6.00 Build 0)  -->
<svg version="1.1" id="Layer_1" xmlns="http://www.w3.org/2000/svg" xmlns:xlink="http://www.w3.org/1999/xlink" x="0px" y="0px"
	 viewBox="0 0 2048 2048" style="enable-background:new 0 0 2048 2048;" xml:space="preserve">
<style type="text/css">
	.st0{fill:#272727;}
	.st1{fill:none;stroke:#000000;stroke-width:4.39;stroke-linecap:square;}
	.st2{fill:#383838;stroke:#000000;stroke-width:3.94;stroke-linecap:square;}
	.st3{fill:#4D4A4A;stroke:#000000;stroke-width:3.48;stroke-linecap:square;}
	.st4{fill:#8A8A8A;}
</style>
<g id="document" transform="matrix(1,0,0,1,1024.0,1024.0)">
	<g>
		<ellipse class="st0" cx="0" cy="-5.7" rx="245.3" ry="60.5"/>
		<ellipse class="st1" cx="0" cy="-5.7" rx="245.3" ry="60.5"/>
	</g>
	<path class="st2" d="M121.9,0c0,67.3-54.6,121.9-121.9,121.9S-121.9,67.3-121.9,0S-67.3-121.9,0-121.9S121.9-67.3,121.9,0z"/>
	<path class="st3" d="M104.1,0c0,57.5-46.6,104.1-104.1,104.1S-104.1,57.5-104.1,0S-57.5-104.1,0-104.1S104.1-57.5,104.1,0z"/>
	<path class="st4" d="M30.2,52.4C1.3,69.1-35.7,59.2-52.4,30.2c-16.7-28.9-6.8-65.9,22.1-82.6s65.9-6.8,82.6,22.1
		C69.1-1.3,59.2,35.7,30.2,52.4z"/>
</g>
</svg>
